<?xml version="1.0" encoding="UTF-8"?>
<svg version="1.1" xmlns="http://www.w3.org/2000/svg" width="680" height="580">
<path d="M0 0 C224.4 0 448.8 0 680 0 C680 191.4 680 382.8 680 580 C455.6 580 231.2 580 0 580 C0 388.6 0 197.2 0 0 Z " fill="#FEFEFE" transform="translate(0,0)"/>
<path d="M0 0 C1.19188845 0.00032605 1.19188845 0.00032605 2.40785545 0.00065869 C3.32387049 -0.0039401 4.23988553 -0.0085389 5.1836586 -0.01327705 C6.70303958 -0.00556171 6.70303958 -0.00556171 8.25311512 0.0023095 C9.32400912 -0.00010491 10.39490312 -0.00251933 11.49824846 -0.00500691 C15.1104814 -0.01067255 18.72253972 -0.00195919 22.3347649 0.00662774 C24.91468584 0.00555557 27.49460654 0.00361787 30.07452625 0.00087517 C36.36854106 -0.00417399 42.66250345 0.00148364 48.95651174 0.01072548 C56.27921363 0.02109269 63.60190408 0.02103974 70.92461192 0.0205529 C83.98549432 0.02005192 97.04635226 0.02922363 110.10722584 0.04373711 C122.79440485 0.05782813 135.48156233 0.06490779 148.16874927 0.06424493 C149.34100226 0.06418499 149.34100226 0.06418499 150.53693713 0.06412385 C151.70712064 0.06406331 151.70712064 0.06406331 152.90094423 0.06400156 C167.32611282 0.0633125 181.75127223 0.06919693 196.17643784 0.07815478 C201.28658242 0.08117669 206.39672532 0.08223499 211.50687069 0.08268708 C218.37762501 0.08343868 225.24835606 0.0897633 232.1191029 0.09985322 C234.64878554 0.1027865 237.17847081 0.10400193 239.7081551 0.10342568 C243.14528558 0.10293881 246.58235107 0.1085528 250.01947254 0.11583489 C251.03462391 0.11428629 252.04977528 0.11273769 253.09568882 0.11114216 C254.00909611 0.1143666 254.9225034 0.11759105 255.8635897 0.12091321 C256.65801965 0.12161763 257.4524496 0.12232206 258.27095318 0.12304783 C260.07280201 0.24954766 260.07280201 0.24954766 261.07280201 1.24954766 C261.19533369 3.63968015 261.25276273 6.00217491 261.26898426 8.39391106 C261.2780065 9.15243135 261.28702873 9.91095163 261.29632437 10.69245738 C261.32561323 13.26069462 261.34773982 15.82894495 261.36992115 18.39725274 C261.38935606 20.2378469 261.40920664 22.07843672 261.42944187 23.91902226 C261.48362948 28.97154015 261.53143367 34.02410106 261.57800359 39.07669419 C261.61814716 43.35494977 261.66174357 47.6331673 261.70535767 51.9113887 C261.84649809 65.76650615 261.97535359 79.62172653 262.10226864 93.47698039 C262.14609173 98.23304169 262.19088868 102.98909359 262.23571068 107.74514556 C262.7737498 164.87704614 263.28014673 222.00925388 263.31912082 279.14401406 C263.32280638 283.06670306 263.33011053 286.98937161 263.33821338 290.91205376 C263.34965731 296.92339876 263.35051514 302.9346408 263.34150356 308.94598931 C263.33948168 311.08882113 263.34058654 313.23165861 263.34510082 315.37448663 C263.35012089 318.22463824 263.34276588 321.07446932 263.33159107 323.92459649 C263.33564488 324.75217367 263.33969869 325.57975085 263.34387535 326.43240613 C263.30161519 332.02073448 263.30161519 332.02073448 261.07280201 334.24954766 C258.0000481 334.47659844 258.0000481 334.47659844 254.09623951 334.44486016 C253.06836826 334.44061532 253.06836826 334.44061532 252.01973194 334.43628472 C249.82891174 334.42508047 247.63849885 334.39997625 245.44780201 334.37454766 C243.96343291 334.36451814 242.47905741 334.35539224 240.99467701 334.34720391 C237.3539194 334.3251406 233.71340045 334.29060942 230.07280201 334.24954766 C230.07280201 337.21954766 230.07280201 340.18954766 230.07280201 343.24954766 C219.21277752 343.30534342 208.36067992 343.24613158 197.50248951 343.03079766 C165.69159756 342.40711558 133.88987221 342.12454766 102.07280201 342.12454766 C101.11343235 342.12454766 100.15406269 342.12454766 99.16562122 342.12454766 C67.22091063 342.12991711 35.29283404 342.46263149 3.35460132 343.09601372 C-6.40663602 343.27979329 -16.16461791 343.29970506 -25.92719799 343.24954766 C-26.06176934 298.02624972 -25.86527432 252.81301226 -25.38941532 207.59210366 C-25.33119571 202.04823598 -25.27351927 196.50436284 -25.21626049 190.96048516 C-25.1986561 189.2587074 -25.1986561 189.2587074 -25.18069607 187.52255028 C-24.83738519 154.06632207 -24.61390307 120.60910124 -24.3814078 87.15195721 C-24.35909917 83.94459049 -24.33669165 80.73722445 -24.3142851 77.52985841 C-24.18325004 58.76976841 -24.05409149 40.00966617 -23.92719799 21.24954766 C-20.96880444 21.22265317 -18.01065372 21.20276025 -15.05219799 21.18704766 C-14.21044018 21.17866875 -13.36868237 21.17028985 -12.50141674 21.16165704 C-11.69575268 21.15843438 -10.89008862 21.15521172 -10.06001049 21.15189141 C-8.9445686 21.14403619 -8.9445686 21.14403619 -7.80659252 21.13602227 C-5.92719799 21.24954766 -5.92719799 21.24954766 -3.92719799 22.24954766 C-3.93767163 21.65416192 -3.94814526 21.05877618 -3.95893627 20.44534844 C-4.00043749 17.75512423 -4.02650504 15.06496729 -4.05219799 12.37454766 C-4.06895581 11.43739922 -4.08571362 10.50025079 -4.10297924 9.53470391 C-4.10942456 8.63880547 -4.11586987 7.74290704 -4.12251049 6.81986016 C-4.13298413 5.99244317 -4.14345776 5.16502618 -4.15424877 4.31253594 C-3.83943208 1.45210468 -2.88026062 0.37295717 0 0 Z " fill="#D6CDD0" transform="translate(211.92719799280167,125.7504523396492)"/>
<path d="M0 0 C82.5 0 165 0 250 0 C251.16303128 45.35821994 251.16303128 45.35821994 251.29090881 67.12983322 C251.31270467 70.72560824 251.33755415 74.32135497 251.36322176 77.91710424 C251.41924736 85.77416353 251.46989886 93.63124827 251.51765215 101.48836184 C251.55257034 107.23103065 251.58922993 112.97368628 251.62667847 118.71633911 C252.0618096 185.81113105 252.11164045 252.90408772 252 320 C243.42 320 234.84 320 226 320 C225.19735534 276.9152166 224.73846273 233.83518008 224.48234075 190.74390739 C224.44722734 184.83775763 224.41062533 178.93161849 224.37332153 173.02548218 C224.04177715 120.35009735 223.84824404 67.67652474 224 15 C222.96397141 15.06810883 221.92794281 15.13621765 220.86051941 15.20639038 C208.34030912 15.98839167 195.84271034 16.23052078 183.30078125 16.3515625 C181.09515249 16.37523819 178.88952508 16.39904031 176.68389893 16.42295837 C170.78173973 16.48502371 164.87953639 16.54000897 158.97728348 16.59233475 C155.30107757 16.62510181 151.6248895 16.65951305 147.94869995 16.69406128 C98.62286348 17.14778895 49.32049088 16.76303583 0 16 C0 10.72 0 5.44 0 0 Z " fill="#FCFCFC" transform="translate(216,132)"/>
<path d="M0 0 C0.33 0 0.66 0 1 0 C1.06995601 26.87602322 0.97317619 53.74975233 0.78125 80.625 C0.77012451 82.19336823 0.75900535 83.76173651 0.74789238 85.33010483 C0.70181173 91.82220403 0.6553549 98.3143005 0.6085577 104.80639458 C0.19548132 162.16291906 -0.09892235 219.51686562 -0.0625 276.875 C-0.06186365 277.90632301 -0.06186365 277.90632301 -0.06121445 278.95848083 C-0.05052038 295.97233929 -0.02838533 312.98616276 0 330 C1.05588727 329.99907821 2.11177454 329.99815641 3.19965839 329.99720669 C29.15443175 329.97478877 55.10920381 329.95847245 81.06398487 329.94818783 C93.61663474 329.94307929 106.16927813 329.93614347 118.72192383 329.92456055 C129.69076073 329.9144441 140.65959293 329.90810728 151.62843436 329.90591151 C157.41090872 329.90463246 163.19336966 329.90173283 168.97583961 329.89426994 C200.99593183 329.85452701 232.98853533 330.2515168 265 331 C265 331.33 265 331.66 265 332 C254.77 332 244.54 332 234 332 C234 334.97 234 337.94 234 341 C223.13997551 341.05579576 212.28787791 340.99658392 201.4296875 340.78125 C169.61879555 340.15756792 137.8170702 339.875 106 339.875 C105.04063034 339.875 104.08126068 339.875 103.09281921 339.875 C71.14810863 339.88036945 39.22003203 340.21308383 7.28179932 340.84646606 C-2.47943803 341.03024563 -12.23741991 341.0501574 -22 341 C-22.13457135 295.77670206 -21.93807633 250.5634646 -21.46221733 205.342556 C-21.40399771 199.79868832 -21.34632128 194.25481518 -21.2890625 188.7109375 C-21.27145811 187.00915974 -21.27145811 187.00915974 -21.25349808 185.27300262 C-20.9101872 151.81677441 -20.68670508 118.35955358 -20.4542098 84.90240955 C-20.43190117 81.69504283 -20.40949366 78.48767679 -20.38708711 75.28031075 C-20.25605205 56.52022075 -20.1268935 37.76011851 -20 19 C-17.04160645 18.97310551 -14.08345573 18.95321259 -11.125 18.9375 C-10.28324219 18.92912109 -9.44148437 18.92074219 -8.57421875 18.91210938 C-7.76855469 18.90888672 -6.96289062 18.90566406 -6.1328125 18.90234375 C-5.01737061 18.89448853 -5.01737061 18.89448853 -3.87939453 18.88647461 C-2 19 -2 19 0 20 C0 13.4 0 6.8 0 0 Z " fill="#D3CBCE" transform="translate(208,128)"/>
<path d="M0 0 C0.91402399 -0.00260775 1.82804798 -0.00521549 2.76976967 -0.00790226 C3.78560316 -0.00567154 4.80143665 -0.00344082 5.84805298 -0.0011425 C6.91809256 -0.00270249 7.98813213 -0.00426248 9.09059715 -0.00586975 C12.70588907 -0.0098848 16.3211396 -0.00668815 19.93643188 -0.00355339 C22.51620509 -0.00490721 25.09597809 -0.00668703 27.67575073 -0.00886345 C33.97322892 -0.01332177 40.27069522 -0.01234441 46.56817389 -0.00945081 C51.68398989 -0.00719702 56.79980254 -0.00688415 61.9156189 -0.00797462 C63.00569954 -0.00820447 63.00569954 -0.00820447 64.11780202 -0.00843897 C65.59388876 -0.00875868 67.0699755 -0.00908289 68.54606223 -0.00941156 C82.40365642 -0.01226653 96.26124401 -0.00897906 110.11883712 -0.00361119 C122.02223139 0.00085686 133.92561591 0.00008093 145.82901001 -0.00452995 C159.6353223 -0.00987541 173.44162879 -0.01199184 187.24794197 -0.00891769 C188.71875127 -0.00859912 190.18956057 -0.00828475 191.66036987 -0.00797462 C192.74601166 -0.00774321 192.74601166 -0.00774321 193.8535856 -0.00750712 C198.96622441 -0.00664188 204.07885956 -0.008105 209.1914978 -0.01045418 C216.06633938 -0.01354347 222.94116215 -0.01135987 229.81600189 -0.00555992 C232.34729735 -0.00423154 234.87859436 -0.00462774 237.40988922 -0.00682259 C240.8492595 -0.00953106 244.28856942 -0.00615669 247.72793579 -0.0011425 C249.25168603 -0.00448858 249.25168603 -0.00448858 250.8062191 -0.00790226 C252.17725509 -0.00399064 252.17725509 -0.00399064 253.57598877 0 C254.37096079 0.00016235 255.16593281 0.0003247 255.98499489 0.00049198 C257.78799438 0.12584114 257.78799438 0.12584114 258.78799438 1.12584114 C258.91052607 3.51597363 258.96795517 5.87846839 258.98417664 8.27020454 C258.9931987 9.028725 259.00222076 9.78724547 259.01151621 10.56875139 C259.04080463 13.13698846 259.06293116 15.70523863 259.08511353 18.27354622 C259.10455109 20.11413753 259.12440454 21.95472448 259.14464283 23.79530716 C259.19883709 28.84782366 259.246646 33.90038315 259.2932086 38.95297503 C259.33333543 43.23126802 259.37688505 47.50952335 259.42044973 51.78778249 C259.54926156 64.44683629 259.66823472 77.10597081 259.7843895 89.76514626 C259.83903912 95.71701538 259.89507132 101.66887046 259.95162028 107.62072182 C260.4945483 164.7725872 260.98555668 221.92377605 260.97602463 279.07859612 C260.97549355 283.00699402 260.97666791 286.93538902 260.97796631 290.8637867 C260.97890574 296.881596 260.97352645 302.8993622 260.9618187 308.91716003 C260.95796726 311.06360798 260.95550931 313.21005897 260.95456314 315.35651016 C260.9524666 318.20918577 260.94397203 321.061761 260.93325806 323.91441536 C260.93371659 324.74558782 260.93417513 325.57676027 260.93464756 326.43311977 C260.90267855 332.01115697 260.90267855 332.01115697 259.78799438 333.12584114 C258.36588917 333.22332285 256.93896162 333.25139555 255.51351929 333.25168228 C254.58556171 333.25429003 253.65760414 333.25689778 252.70152664 333.25958455 C251.15443071 333.25623846 251.15443071 333.25623846 249.57608032 333.25282478 C248.48970654 333.25438477 247.40333275 333.25594476 246.28403854 333.25755203 C242.61346869 333.26156716 238.9429396 333.2583704 235.27236938 333.25523567 C232.65318782 333.25658949 230.03400645 333.2583693 227.41482544 333.26054573 C221.02109344 333.26500409 214.62737314 333.26402667 208.23364067 333.26113309 C203.03964008 333.25887931 197.84564278 333.25856642 192.65164185 333.25965691 C191.91381997 333.25981014 191.17599809 333.25996337 190.41581798 333.26012125 C188.91718324 333.26044096 187.4185485 333.26076517 185.91991377 333.26109384 C171.85057912 333.26394883 157.78125098 333.26066132 143.7119174 333.25529347 C131.62659605 333.25082542 119.54128431 333.25160135 107.45596313 333.25621223 C93.43870002 333.26155767 79.42144261 333.26367413 65.40417862 333.26059997 C63.91090139 333.2602814 62.41762416 333.25996703 60.92434692 333.25965691 C60.18952929 333.25950263 59.45471166 333.25934836 58.69762683 333.2591894 C53.50684138 333.25832416 48.31605954 333.25978729 43.12527466 333.26213646 C36.14537388 333.26522573 29.16549162 333.2630422 22.18559265 333.2572422 C19.61559581 333.25591381 17.04559745 333.25631005 14.4756012 333.25850487 C10.98368251 333.26121329 7.49182328 333.25783904 3.99990845 333.25282478 C2.96851116 333.25505551 1.93711388 333.25728623 0.87446213 333.25958455 C-0.05349545 333.2569768 -0.98145302 333.25436905 -1.93753052 333.25168228 C-2.74465359 333.25151993 -3.55177666 333.25135758 -4.383358 333.2511903 C-6.21200562 333.12584114 -6.21200562 333.12584114 -7.21200562 332.12584114 C-7.31334365 329.06096848 -7.34810507 326.01863424 -7.34140015 322.95323372 C-7.34312697 321.97457564 -7.3448538 320.99591757 -7.34663296 319.98760319 C-7.35104215 316.6651767 -7.3480012 313.34279973 -7.34481812 310.02037239 C-7.34587902 307.62960481 -7.3472659 305.23883736 -7.34895325 302.84807014 C-7.35180587 296.26455168 -7.34728 289.68105374 -7.34077835 283.0975399 C-7.33675593 278.94168059 -7.33491745 274.78582185 -7.33331299 270.62996101 C-7.31252802 222.86950655 -7.09805746 175.11019074 -6.80583954 127.35069084 C-6.77978501 123.08180126 -6.75470052 118.81290663 -6.72991633 114.54400951 C-6.36060458 51.06001086 -6.36060458 51.06001086 -5.73934937 20.05943489 C-5.72065859 19.0632168 -5.70196781 18.06699871 -5.68271065 17.04059219 C-5.63034371 14.3272306 -5.57104949 11.61413436 -5.50863647 8.90098763 C-5.4937084 8.11358885 -5.47878033 7.32619007 -5.46339989 6.51493073 C-5.29571217 0.00108151 -5.29571217 0.00108151 0 0 Z M1.78799438 6.12584114 C0.96087265 68.26861882 0.96087265 68.26861882 0.28274226 130.41263461 C0.24099276 134.76229051 0.19839507 139.11193798 0.15583998 143.46158606 C0.05539962 153.7299496 -0.04374468 163.99832501 -0.14193726 174.26671028 C-0.24173139 184.70015088 -0.34384882 195.13356703 -0.44703585 205.56697458 C-0.53754269 214.72653402 -0.62662156 223.88610662 -0.71461004 233.0456906 C-0.76635248 238.43087941 -0.81855986 243.81606242 -0.87217903 249.20123291 C-0.92224969 254.23615889 -0.97048699 259.27109961 -1.01749611 264.30605507 C-1.03462041 266.11116113 -1.05230447 267.91626202 -1.07071304 269.72135544 C-1.26167181 288.52381778 -1.21200562 307.32060938 -1.21200562 326.12584114 C82.93799438 326.12584114 167.08799438 326.12584114 253.78799438 326.12584114 C253.8478074 280.53600097 253.8478074 280.53600097 253.85049438 234.94615364 C253.84995686 234.19847552 253.84941933 233.4507974 253.84886551 232.68046236 C253.82108829 195.90380506 253.63825649 159.12825466 253.39843684 122.35242313 C253.36118125 116.63390884 253.32571019 110.91538552 253.29095459 105.19685555 C253.24331747 97.39372929 253.19081741 89.59064552 253.13511658 81.78757286 C253.11070571 78.3535243 253.08867564 74.91946833 253.06850529 71.48539233 C252.92478078 49.68322841 252.34706622 27.92964256 251.78799438 6.12584114 C169.28799438 6.12584114 86.78799438 6.12584114 1.78799438 6.12584114 Z " fill="#191818" transform="translate(214.21200561523438,125.87415885925293)"/>
<path d="M0 0 C0.86832899 0.00184359 1.73665798 0.00368717 2.63129997 0.00558662 C3.62691948 0.0028373 4.62253899 0.00008797 5.64832878 -0.00274467 C7.29262367 0.00804115 7.29262367 0.00804115 8.97013664 0.01904488 C10.12135002 0.01875282 11.2725634 0.01846077 12.45866203 0.01815987 C16.27880603 0.01955759 20.09875702 0.03513974 23.91886711 0.05078316 C26.56159674 0.05451171 29.20432775 0.05735942 31.84705925 0.0593586 C38.10148595 0.06558071 44.35584294 0.08200137 50.61023891 0.10205758 C57.72984981 0.12439387 64.84946399 0.13540428 71.96910119 0.14544845 C86.616455 0.166367 101.26375383 0.20155715 115.91105461 0.24609566 C116.53605461 2.62109566 116.53605461 2.62109566 116.91105461 5.24609566 C114.91105461 7.24609566 114.91105461 7.24609566 112.82210922 7.49219131 C111.51961574 7.48942594 111.51961574 7.48942594 110.19080925 7.48660469 C109.19518974 7.48935402 108.19957024 7.49210335 107.17378044 7.49493599 C106.07758385 7.48774544 104.98138725 7.48055489 103.85197258 7.47314644 C102.7007592 7.47343849 101.54954582 7.47373055 100.36344719 7.47403145 C96.54330319 7.47263372 92.7233522 7.45705158 88.90324211 7.44140816 C86.26051248 7.43767961 83.61778148 7.43483189 80.97504997 7.43283272 C74.72062327 7.4266106 68.46626628 7.41018994 62.21187031 7.39013374 C55.09225942 7.36779744 47.97264523 7.35678703 40.85300803 7.34674287 C26.20565422 7.32582432 11.55835539 7.29063417 -3.08894539 7.24609566 C-3.71394539 4.87109566 -3.71394539 4.87109566 -4.08894539 2.24609566 C-2.08894539 0.24609566 -2.08894539 0.24609566 0 0 Z " fill="#1C1B1B" transform="translate(311.08894538879395,286.75390434265137)"/>
<path d="M0 0 C15.35073083 -0.04667745 30.70145838 -0.08196793 46.05224419 -0.10362434 C53.17954757 -0.11394612 60.30680691 -0.12802361 67.43408203 -0.15087891 C74.30698186 -0.17290803 81.17983581 -0.18455525 88.05276871 -0.18975449 C90.68032681 -0.19346163 93.3078823 -0.20070029 95.93542099 -0.21146011 C99.60397597 -0.225891 103.27233936 -0.22798147 106.94091797 -0.22705078 C108.03711456 -0.23424133 109.13331116 -0.24143188 110.26272583 -0.24884033 C111.75615509 -0.24471634 111.75615509 -0.24471634 113.27975464 -0.24050903 C114.14808363 -0.24235262 115.01641262 -0.24419621 115.91105461 -0.24609566 C118 0 118 0 120 2 C119.46428571 5.53571429 119.46428571 5.53571429 118 7 C116.46914161 7.09581822 114.93386244 7.12188108 113.40000916 7.12025452 C111.90864189 7.12231651 111.90864189 7.12231651 110.387146 7.12442017 C109.28735413 7.12082489 108.18756226 7.11722961 107.05444336 7.11352539 C105.90337601 7.11367142 104.75230865 7.11381744 103.56636047 7.1139679 C99.74083609 7.11326818 95.91535969 7.10547302 92.08984375 7.09765625 C89.44568407 7.09579228 86.80152404 7.09436828 84.15736389 7.09336853 C77.89584583 7.09025549 71.63434514 7.08204248 65.37283474 7.07201904 C58.24598463 7.06085705 51.1191337 7.05534724 43.99227703 7.05032361 C29.3281757 7.03985984 14.66408809 7.02226093 0 7 C-1.125 2.25 -1.125 2.25 0 0 Z " fill="#191718" transform="translate(310,197)"/>
<path d="M0 0 C2.07332802 -0.36914349 2.07332802 -0.36914349 4.68228149 -0.36076355 C6.16308952 -0.36694954 6.16308952 -0.36694954 7.67381287 -0.3732605 C8.76065872 -0.36247467 9.84750458 -0.35168884 10.96728516 -0.34057617 C12.67947487 -0.34123329 12.67947487 -0.34123329 14.42625427 -0.34190369 C18.21402866 -0.33980709 22.00136506 -0.31643446 25.7890625 -0.29296875 C28.4093705 -0.28737591 31.02968164 -0.28310434 33.6499939 -0.28010559 C39.85133915 -0.27077245 46.05252619 -0.24614169 52.2538017 -0.21605712 C59.31294174 -0.18255242 66.37208924 -0.16603703 73.43128896 -0.15097082 C87.95427434 -0.11959312 102.47713496 -0.0668081 117 0 C117.6875 1.8125 117.6875 1.8125 118 4 C116.86028576 5.72745228 116.86028576 5.72745228 115 7 C112.81924152 7.36914349 112.81924152 7.36914349 110.23542786 7.36076355 C108.76517906 7.36694954 108.76517906 7.36694954 107.26522827 7.3732605 C106.19132843 7.36247467 105.11742859 7.35168884 104.01098633 7.34057617 C102.87913406 7.34101425 101.7472818 7.34145233 100.58113098 7.34190369 C96.83125701 7.33980978 93.08182734 7.31644966 89.33203125 7.29296875 C86.73557276 7.28737496 84.1391111 7.28310384 81.54264832 7.28010559 C75.40153503 7.26981243 69.26060574 7.24615625 63.11956185 7.21605712 C56.12811224 7.18253323 49.13665502 7.16603219 42.14514506 7.15097082 C27.76334404 7.11960712 13.38167771 7.06683407 -1 7 C-1.625 5.1875 -1.625 5.1875 -2 3 C-1.34 2.01 -0.68 1.02 0 0 Z " fill="#1D1C1C" transform="translate(312,317)"/>
<path d="M0 0 C0.8545021 0.00092179 1.70900419 0.00184359 2.58940029 0.00279331 C4.05552509 0.00073132 4.05552509 0.00073132 5.55126858 -0.00137234 C6.63235897 0.00222294 7.71344936 0.00581821 8.82730007 0.00952244 C10.52464039 0.0093034 10.52464039 0.0093034 12.25627041 0.00907993 C16.01686389 0.00977964 19.77740855 0.01757472 23.53799343 0.02539158 C26.13731261 0.02725555 28.73663215 0.02867955 31.33595181 0.0296793 C37.49122295 0.03311442 43.64647378 0.04100527 49.80173725 0.05102879 C56.80767064 0.06219089 63.81360485 0.06770062 70.81954491 0.07272422 C85.23481851 0.08318791 99.65007722 0.10078675 114.06533718 0.12304783 C114.56033718 2.59804783 114.56033718 2.59804783 115.06533718 5.12304783 C111.86542248 7.2563243 111.06225124 7.37370024 107.39015102 7.37701511 C106.42970379 7.38265476 105.46925655 7.38829441 104.47970486 7.39410496 C103.42764858 7.3900565 102.37559231 7.38600803 101.29165554 7.38183689 C100.182523 7.38534153 99.07339046 7.38884617 97.93064785 7.39245701 C94.25542901 7.40127741 90.58040181 7.39542438 86.90518093 7.38867283 C84.35835133 7.39001929 81.81152198 7.39195966 79.26469326 7.39447117 C73.92404403 7.39742278 68.58346389 7.39331318 63.24282742 7.38379002 C57.0642186 7.3729 50.88574172 7.37643525 44.70713609 7.38744283 C38.76708781 7.39760262 32.82708062 7.39653992 26.88702488 7.39067936 C24.35716197 7.38934151 21.82729572 7.39099527 19.29743671 7.39563847 C15.76807397 7.40069451 12.23896783 7.39300656 8.70962429 7.38183689 C7.12850353 7.38790958 7.12850353 7.38790958 5.51544094 7.39410496 C4.55781353 7.38846531 3.60018612 7.38282566 2.6135397 7.37701511 C1.77860454 7.37626106 0.94366938 7.37550701 0.08343315 7.37473011 C-1.93466282 7.12304783 -1.93466282 7.12304783 -3.93466282 5.12304783 C-3.18917633 0.20283701 -3.18917633 0.20283701 0 0 Z " fill="#1B1A1A" transform="translate(314.9346628189087,226.87695217132568)"/>
<path d="M0 0 C0.88399947 0.00092179 1.76799894 0.00184359 2.67878628 0.00279331 C3.68985943 0.00141865 4.70093258 0.00004398 5.74264431 -0.00137234 C7.42038433 0.00402058 7.42038433 0.00402058 9.13201809 0.00952244 C10.30259258 0.00937641 11.47316708 0.00923038 12.67921352 0.00907993 C15.89807713 0.00965887 19.11689773 0.01468791 22.33575273 0.02165389 C25.6963417 0.02788826 29.05693143 0.02849129 32.41752529 0.0296793 C38.78529112 0.03279237 45.15303986 0.04100543 51.52079815 0.05102879 C58.76856499 0.06219068 66.01633263 0.06770057 73.26410592 0.07272422 C88.17703605 0.08318806 103.08995017 0.10078703 118.0028677 0.12304783 C118.0455887 1.78916688 118.04350602 3.45687668 118.0028677 5.12304783 C117.0028677 6.12304783 117.0028677 6.12304783 115.0057354 6.24609566 C114.12173593 6.24517386 113.23773645 6.24425207 112.32694912 6.24330235 C111.31587597 6.24467701 110.30480282 6.24605167 109.26309109 6.24746799 C107.58535107 6.24207508 107.58535107 6.24207508 105.87371731 6.23657322 C104.70314281 6.23671925 103.53256832 6.23686527 102.32652187 6.23701572 C99.10765827 6.23643678 95.88883766 6.23140774 92.66998267 6.22444177 C89.3093937 6.21820739 85.94880397 6.21760436 82.58821011 6.21641636 C76.22044428 6.21330329 69.85269554 6.20509023 63.48493725 6.19506687 C56.23717041 6.18390498 48.98940277 6.17839509 41.74162948 6.17337143 C26.82869935 6.1629076 11.91578523 6.14530863 -2.9971323 6.12304783 C-3.0398533 4.45692878 -3.03777062 2.78921898 -2.9971323 1.12304783 C-1.9971323 0.12304783 -1.9971323 0.12304783 0 0 Z " fill="#111010" transform="translate(312.99713230133057,257.8769521713257)"/>
<path d="M0 0 C1.65 0.33 3.3 0.66 5 1 C5 2.98 5 4.96 5 7 C3.125 7.625 3.125 7.625 1 8 C0.34 7.34 -0.32 6.68 -1 6 C-0.625 2.875 -0.625 2.875 0 0 Z " fill="#282627" transform="translate(278,227)"/>
<path d="M0 0 C1.2065625 0.0309375 1.2065625 0.0309375 2.4375 0.0625 C3.0625 1.875 3.0625 1.875 3.4375 4.0625 C2.4475 5.5475 2.4475 5.5475 1.4375 7.0625 C0.1175 6.7325 -1.2025 6.4025 -2.5625 6.0625 C-2.94468767 4.40635343 -3.27645102 2.73792976 -3.5625 1.0625 C-2.5625 0.0625 -2.5625 0.0625 0 0 Z " fill="#232121" transform="translate(280.5625,316.9375)"/>
<path d="M0 0 C1.2065625 0.0309375 1.2065625 0.0309375 2.4375 0.0625 C2.7675 1.7125 3.0975 3.3625 3.4375 5.0625 C1.4575 5.3925 -0.5225 5.7225 -2.5625 6.0625 C-2.94468767 4.40635343 -3.27645102 2.73792976 -3.5625 1.0625 C-2.5625 0.0625 -2.5625 0.0625 0 0 Z " fill="#2A2828" transform="translate(280.5625,285.9375)"/>
<path d="M0 0 C1.2065625 0.0309375 1.2065625 0.0309375 2.4375 0.0625 C2.4375 1.7125 2.4375 3.3625 2.4375 5.0625 C0.7875 5.3925 -0.8625 5.7225 -2.5625 6.0625 C-2.94468767 4.40635343 -3.27645102 2.73792976 -3.5625 1.0625 C-2.5625 0.0625 -2.5625 0.0625 0 0 Z " fill="#222020" transform="translate(280.5625,196.9375)"/>
<path d="M0 0 C2.0625 0.4375 2.0625 0.4375 4 1 C3.67 2.65 3.34 4.3 3 6 C1.35 5.67 -0.3 5.34 -2 5 C-1.125 1.125 -1.125 1.125 0 0 Z " fill="#252323" transform="translate(279,257)"/>
</svg>
